<?xml version="1.0" standalone="no"?><svg xmlns:xlink="http://www.w3.org/1999/xlink" xmlns="http://www.w3.org/2000/svg" viewBox="0 0 1000 583.3360007682213" preserveAspectRatio="xMaxYMax slice"><g transform="scale(1.2803687461989053)"><rect x="0" y="0" width="781.0285714285715" height="455.6" fill="#ffffff"/><rect x="6.508571428571429" y="6.508571428571429" width="52.06857142857143" height="52.06857142857143" fill="#ffffff"/><g transform="translate(6.51,32.54) scale(1.3015) rotate(0)"><path d="M19.9981 0.00193429L3.72652 -7.68637e-07L8.4784 4.75382L0 13.2345L6.76585 20L15.2462 11.5208L20 16.2746L19.9981 0.00193429Z" fill="#fbf8fd"/></g><rect x="201.7657142857143" y="6.508571428571429" width="52.06857142857143" height="52.06857142857143" fill="#ffffff"/><g transform="translate(201.77,6.51) scale(1.3015) rotate(0)"><path d="M19.9981 0.00193429L3.72652 -7.68637e-07L8.4784 4.75382L0 13.2345L6.76585 20L15.2462 11.5208L20 16.2746L19.9981 0.00193429Z" fill="#a158db"/></g><rect x="462.10857142857145" y="6.508571428571429" width="52.06857142857143" height="52.06857142857143" fill="#ffffff"/><rect x="527.1942857142858" y="6.508571428571429" width="52.06857142857143" height="52.06857142857143" fill="#ffffff"/><g transform="translate(527.19,6.51) scale(1.3015) rotate(0)"><path d="M19.9981 0.00193429L3.72652 -7.68637e-07L8.4784 4.75382L0 13.2345L6.76585 20L15.2462 11.5208L20 16.2746L19.9981 0.00193429Z" fill="#fff6f9"/></g><g transform="translate(527.19,32.54) scale(1.3015) rotate(0)"><path d="M19.9981 0.00193429L3.72652 -7.68637e-07L8.4784 4.75382L0 13.2345L6.76585 20L15.2462 11.5208L20 16.2746L19.9981 0.00193429Z" fill="#eaf6e0"/></g><rect x="657.3657142857144" y="6.508571428571429" width="52.06857142857143" height="52.06857142857143" fill="#ffffff"/><rect x="722.4514285714286" y="6.508571428571429" width="52.06857142857143" height="52.06857142857143" fill="#ffffff"/><g transform="translate(748.49,6.51) scale(1.3015) rotate(0)"><path d="M19.9981 0.00193429L3.72652 -7.68637e-07L8.4784 4.75382L0 13.2345L6.76585 20L15.2462 11.5208L20 16.2746L19.9981 0.00193429Z" fill="#fce382"/></g><rect x="266.8514285714286" y="71.59428571428572" width="52.06857142857143" height="52.06857142857143" fill="#ffffff"/><g transform="translate(266.85,71.59) scale(1.3015) rotate(0)"><path d="M19.9981 0.00193429L3.72652 -7.68637e-07L8.4784 4.75382L0 13.2345L6.76585 20L15.2462 11.5208L20 16.2746L19.9981 0.00193429Z" fill="#ff6d96"/></g><g transform="translate(292.89,71.59) scale(1.3015) rotate(0)"><path d="M19.9981 0.00193429L3.72652 -7.68637e-07L8.4784 4.75382L0 13.2345L6.76585 20L15.2462 11.5208L20 16.2746L19.9981 0.00193429Z" fill="#ffadc4"/></g><g transform="translate(292.89,97.63) scale(1.3015) rotate(0)"><path d="M19.9981 0.00193429L3.72652 -7.68637e-07L8.4784 4.75382L0 13.2345L6.76585 20L15.2462 11.5208L20 16.2746L19.9981 0.00193429Z" fill="#fdeba6"/></g><rect x="397.02285714285716" y="71.59428571428572" width="52.06857142857143" height="52.06857142857143" fill="#ffffff"/><rect x="462.10857142857145" y="71.59428571428572" width="52.06857142857143" height="52.06857142857143" fill="#ffffff"/><g transform="translate(488.14,71.59) scale(1.3015) rotate(0)"><path d="M19.9981 0.00193429L3.72652 -7.68637e-07L8.4784 4.75382L0 13.2345L6.76585 20L15.2462 11.5208L20 16.2746L19.9981 0.00193429Z" fill="#9441d6"/></g><rect x="6.508571428571429" y="136.68" width="52.06857142857143" height="52.06857142857143" fill="#ffffff"/><g transform="translate(32.54,136.68) scale(1.3015) rotate(0)"><path d="M19.9981 0.00193429L3.72652 -7.68637e-07L8.4784 4.75382L0 13.2345L6.76585 20L15.2462 11.5208L20 16.2746L19.9981 0.00193429Z" fill="#fef6d8"/></g><rect x="136.68" y="136.68" width="52.06857142857143" height="52.06857142857143" fill="#ffffff"/><g transform="translate(136.68,136.68) scale(1.3015) rotate(0)"><path d="M19.9981 0.00193429L3.72652 -7.68637e-07L8.4784 4.75382L0 13.2345L6.76585 20L15.2462 11.5208L20 16.2746L19.9981 0.00193429Z" fill="#dec4f2"/></g><g transform="translate(136.68,162.71) scale(1.3015) rotate(0)"><path d="M19.9981 0.00193429L3.72652 -7.68637e-07L8.4784 4.75382L0 13.2345L6.76585 20L15.2462 11.5208L20 16.2746L19.9981 0.00193429Z" fill="#cbe8b3"/></g><g transform="translate(162.71,162.71) scale(1.3015) rotate(0)"><path d="M19.9981 0.00193429L3.72652 -7.68637e-07L8.4784 4.75382L0 13.2345L6.76585 20L15.2462 11.5208L20 16.2746L19.9981 0.00193429Z" fill="#fbd544"/></g><rect x="527.1942857142858" y="136.68" width="52.06857142857143" height="52.06857142857143" fill="#ffffff"/><g transform="translate(553.23,136.68) scale(1.3015) rotate(0)"><path d="M19.9981 0.00193429L3.72652 -7.68637e-07L8.4784 4.75382L0 13.2345L6.76585 20L15.2462 11.5208L20 16.2746L19.9981 0.00193429Z" fill="#fefae9"/></g><rect x="6.508571428571429" y="201.7657142857143" width="52.06857142857143" height="52.06857142857143" fill="#ffffff"/><rect x="71.59428571428572" y="201.7657142857143" width="52.06857142857143" height="52.06857142857143" fill="#ffffff"/><g transform="translate(71.59,227.8) scale(1.3015) rotate(0)"><path d="M19.9981 0.00193429L3.72652 -7.68637e-07L8.4784 4.75382L0 13.2345L6.76585 20L15.2462 11.5208L20 16.2746L19.9981 0.00193429Z" fill="#8acc52"/></g><rect x="201.7657142857143" y="201.7657142857143" width="52.06857142857143" height="52.06857142857143" fill="#ffffff"/><g transform="translate(201.77,201.77) scale(1.3015) rotate(0)"><path d="M19.9981 0.00193429L3.72652 -7.68637e-07L8.4784 4.75382L0 13.2345L6.76585 20L15.2462 11.5208L20 16.2746L19.9981 0.00193429Z" fill="#fffdf8"/></g><g transform="translate(201.77,227.8) scale(1.3015) rotate(0)"><path d="M19.9981 0.00193429L3.72652 -7.68637e-07L8.4784 4.75382L0 13.2345L6.76585 20L15.2462 11.5208L20 16.2746L19.9981 0.00193429Z" fill="#fffdf6"/></g><rect x="71.59428571428572" y="266.8514285714286" width="52.06857142857143" height="52.06857142857143" fill="#ffffff"/><g transform="translate(71.59,266.85) scale(1.3015) rotate(0)"><path d="M19.9981 0.00193429L3.72652 -7.68637e-07L8.4784 4.75382L0 13.2345L6.76585 20L15.2462 11.5208L20 16.2746L19.9981 0.00193429Z" fill="#fffefe"/></g><rect x="201.7657142857143" y="266.8514285714286" width="52.06857142857143" height="52.06857142857143" fill="#ffffff"/><g transform="translate(201.77,266.85) scale(1.3015) rotate(0)"><path d="M19.9981 0.00193429L3.72652 -7.68637e-07L8.4784 4.75382L0 13.2345L6.76585 20L15.2462 11.5208L20 16.2746L19.9981 0.00193429Z" fill="#d7edc4"/></g><rect x="331.9371428571429" y="266.8514285714286" width="52.06857142857143" height="52.06857142857143" fill="#ffffff"/><g transform="translate(331.94,266.85) scale(1.3015) rotate(0)"><path d="M19.9981 0.00193429L3.72652 -7.68637e-07L8.4784 4.75382L0 13.2345L6.76585 20L15.2462 11.5208L20 16.2746L19.9981 0.00193429Z" fill="#ecddf8"/></g><rect x="71.59428571428572" y="331.9371428571429" width="52.06857142857143" height="52.06857142857143" fill="#ffffff"/><g transform="translate(71.59,331.94) scale(1.3015) rotate(0)"><path d="M19.9981 0.00193429L3.72652 -7.68637e-07L8.4784 4.75382L0 13.2345L6.76585 20L15.2462 11.5208L20 16.2746L19.9981 0.00193429Z" fill="#fff5f8"/></g><g transform="translate(71.59,357.97) scale(1.3015) rotate(0)"><path d="M19.9981 0.00193429L3.72652 -7.68637e-07L8.4784 4.75382L0 13.2345L6.76585 20L15.2462 11.5208L20 16.2746L19.9981 0.00193429Z" fill="#fef4d0"/></g><rect x="266.8514285714286" y="331.9371428571429" width="52.06857142857143" height="52.06857142857143" fill="#ffffff"/><g transform="translate(266.85,357.97) scale(1.3015) rotate(0)"><path d="M19.9981 0.00193429L3.72652 -7.68637e-07L8.4784 4.75382L0 13.2345L6.76585 20L15.2462 11.5208L20 16.2746L19.9981 0.00193429Z" fill="#e2ccf4"/></g><rect x="592.28" y="331.9371428571429" width="52.06857142857143" height="52.06857142857143" fill="#ffffff"/><rect x="657.3657142857144" y="331.9371428571429" width="52.06857142857143" height="52.06857142857143" fill="#ffffff"/><g transform="translate(683.4,331.94) scale(1.3015) rotate(0)"><path d="M19.9981 0.00193429L3.72652 -7.68637e-07L8.4784 4.75382L0 13.2345L6.76585 20L15.2462 11.5208L20 16.2746L19.9981 0.00193429Z" fill="#97d164"/></g><rect x="71.59428571428572" y="397.02285714285716" width="52.06857142857143" height="52.06857142857143" fill="#ffffff"/><g transform="translate(97.63,397.02) scale(1.3015) rotate(0)"><path d="M19.9981 0.00193429L3.72652 -7.68637e-07L8.4784 4.75382L0 13.2345L6.76585 20L15.2462 11.5208L20 16.2746L19.9981 0.00193429Z" fill="#acda84"/></g><g transform="translate(71.59,423.06) scale(1.3015) rotate(0)"><path d="M19.9981 0.00193429L3.72652 -7.68637e-07L8.4784 4.75382L0 13.2345L6.76585 20L15.2462 11.5208L20 16.2746L19.9981 0.00193429Z" fill="#fbf8fd"/></g><g transform="translate(97.63,423.06) scale(1.3015) rotate(0)"><path d="M19.9981 0.00193429L3.72652 -7.68637e-07L8.4784 4.75382L0 13.2345L6.76585 20L15.2462 11.5208L20 16.2746L19.9981 0.00193429Z" fill="#ffaac2"/></g><rect x="201.7657142857143" y="397.02285714285716" width="52.06857142857143" height="52.06857142857143" fill="#ffffff"/><g transform="translate(201.77,397.02) scale(1.3015) rotate(0)"><path d="M19.9981 0.00193429L3.72652 -7.68637e-07L8.4784 4.75382L0 13.2345L6.76585 20L15.2462 11.5208L20 16.2746L19.9981 0.00193429Z" fill="#ff98b5"/></g><g transform="translate(227.8,423.06) scale(1.3015) rotate(0)"><path d="M19.9981 0.00193429L3.72652 -7.68637e-07L8.4784 4.75382L0 13.2345L6.76585 20L15.2462 11.5208L20 16.2746L19.9981 0.00193429Z" fill="#fef9e3"/></g><rect x="266.8514285714286" y="397.02285714285716" width="52.06857142857143" height="52.06857142857143" fill="#ffffff"/><g transform="translate(266.85,397.02) scale(1.3015) rotate(0)"><path d="M19.9981 0.00193429L3.72652 -7.68637e-07L8.4784 4.75382L0 13.2345L6.76585 20L15.2462 11.5208L20 16.2746L19.9981 0.00193429Z" fill="#90ce5a"/></g><g transform="translate(266.85,423.06) scale(1.3015) rotate(0)"><path d="M19.9981 0.00193429L3.72652 -7.68637e-07L8.4784 4.75382L0 13.2345L6.76585 20L15.2462 11.5208L20 16.2746L19.9981 0.00193429Z" fill="#fdeaa3"/></g><rect x="331.9371428571429" y="397.02285714285716" width="52.06857142857143" height="52.06857142857143" fill="#ffffff"/></g></svg>